<svg id="图层_1" data-name="图层 1" xmlns="http://www.w3.org/2000/svg" xmlns:xlink="http://www.w3.org/1999/xlink" viewBox="0 0 400 342"><defs><style>.cls-1{fill:url(#未命名的渐变_9);}</style><linearGradient id="未命名的渐变_9" x1="200" y1="736.4" x2="200" y2="1077.6" gradientTransform="translate(0 -736)" gradientUnits="userSpaceOnUse"><stop offset="0.25" stop-color="#00a6b5"/><stop offset="0.75" stop-color="#8ab3e8"/><stop offset="0.95" stop-color="#ddafca"/></linearGradient></defs><path class="cls-1" d="M300,200.4a100,100,0,0,0-196.9-24.7H61a141.14,141.14,0,0,1,278,.3h59.5C386.5,77.1,302.2.4,200,.4,89.6.4.1,89.8,0,200.2H128.7v-.1h.1v-3.6a71.31,71.31,0,1,1,138.4,28.3H339a139.69,139.69,0,0,1-32.8,68.5,20,20,0,0,1-15.2,6.9H108.9a20.38,20.38,0,0,1-15.2-7,142.46,142.46,0,0,1-26.2-44.1h45.2a101,101,0,0,0,19.2,24.4H268.1a102.61,102.61,0,0,0,19-24l-139.1.3a71.58,71.58,0,0,1-15.3-25.1L1.5,224.6a199.76,199.76,0,0,0,27.2,79,79.44,79.44,0,0,0,68.1,38H303.3a80,80,0,0,0,68.9-39.4A198.63,198.63,0,0,0,400,200.4H300Z"/></svg>